<?xml version="1.0" encoding="UTF-8"?>
<svg version="1.1" xmlns="http://www.w3.org/2000/svg" width="512" height="512">
<path d="M0 0 C3.26701612 2.66358727 6.39330111 5.45632415 9.50390625 8.30078125 C10.303125 9.0175 11.10234375 9.73421875 11.92578125 10.47265625 C23.25289034 21.15709249 31.22417267 34.17323423 37.50390625 48.30078125 C38.22707031 49.89986328 38.22707031 49.89986328 38.96484375 51.53125 C41.63432247 57.91373093 43.35552743 64.37071353 44.81640625 71.11328125 C44.98817383 71.9019458 45.15994141 72.69061035 45.33691406 73.50317383 C46.35118393 78.52740939 46.66166128 83.17666406 46.50390625 88.30078125 C47.38949219 88.254375 48.27507812 88.20796875 49.1875 88.16015625 C72.95786214 87.46757546 97.43907086 96.66279554 114.94140625 112.86328125 C116.81462495 114.6574405 118.6587217 116.47746555 120.50390625 118.30078125 C121.21933594 118.94402344 121.93476563 119.58726562 122.671875 120.25 C138.41807094 134.73901463 149.49141961 159.19472699 150.6809082 180.46606445 C151.2243978 210.49224056 151.2243978 210.49224056 146.50390625 224.30078125 C146.29491699 224.92903809 146.08592773 225.55729492 145.87060547 226.20458984 C140.55327246 241.86981136 132.06814416 254.59784183 120.50390625 266.30078125 C119.86066406 267.01621094 119.21742188 267.73164063 118.5546875 268.46875 C104.16628443 284.10560453 81.2267717 294.19060417 60.26074219 295.84619141 C59.182099 295.93244781 58.10345581 296.01870422 56.99212646 296.10757446 C55.76045746 296.20321182 55.76045746 296.20321182 54.50390625 296.30078125 C54.50759342 297.12039243 54.51128059 297.9400036 54.5150795 298.78445148 C54.60354614 318.75833643 54.66967205 338.73218744 54.71115494 358.7062273 C54.7317507 368.36566532 54.75981404 378.02497229 54.80566406 387.68432617 C54.84562343 396.10671905 54.87136075 404.52901698 54.88026023 412.95150203 C54.88545961 417.40818999 54.89761734 421.8646064 54.92682648 426.32120705 C54.95413966 430.52289314 54.96231941 434.72419791 54.95633698 438.92596436 C54.95743015 440.46135727 54.96528897 441.99676402 54.98072815 443.5320797 C55.10843719 456.89646425 52.9589502 467.39638868 43.50390625 477.30078125 C31.96480313 488.31637118 19.72490105 488.89127428 4.62109375 488.81835938 C2.72600773 488.82378766 0.83092594 488.83091427 -1.06414795 488.83959961 C-6.18401291 488.85775182 -11.30355352 488.850799 -16.42342377 488.83808327 C-21.79677668 488.82791348 -27.17010295 488.83735996 -32.54345703 488.84362793 C-41.56482905 488.85089277 -50.58606981 488.84134717 -59.60742188 488.82226562 C-70.01795788 488.80049919 -80.42818046 488.80755138 -90.83870888 488.82957125 C-99.79786665 488.84775841 -108.75693041 488.85026737 -117.71610069 488.83981657 C-123.05787667 488.83359987 -128.39950561 488.83269569 -133.74127197 488.84596252 C-138.7647484 488.85756873 -143.7878231 488.84940847 -148.81125641 488.8263855 C-150.64817897 488.82112382 -152.48513568 488.82256833 -154.32204437 488.83143616 C-168.4999379 488.8935392 -179.77013827 487.54011493 -190.49609375 477.30078125 C-200.61716057 466.69871323 -202.0922714 455.40115337 -201.95019531 441.27270508 C-201.94906482 439.68489613 -201.94970463 438.09708509 -201.95196533 436.50927734 C-201.95310555 432.23095276 -201.92970951 427.95308351 -201.9016695 423.67486405 C-201.87653943 419.19193262 -201.87430475 414.70898893 -201.86956787 410.22599792 C-201.85717202 401.75122342 -201.82439666 393.27665713 -201.78416991 384.801974 C-201.73934623 375.14776036 -201.7174386 365.4935364 -201.69738817 355.83924448 C-201.65566075 335.99297419 -201.58537513 316.14689088 -201.49609375 296.30078125 C-202.72776276 296.20514389 -202.72776276 296.20514389 -203.98431396 296.10757446 C-205.06295715 296.02131805 -206.14160034 295.93506165 -207.25292969 295.84619141 C-208.85584869 295.71961655 -208.85584869 295.71961655 -210.4911499 295.59048462 C-231.91055093 293.52546345 -251.28590316 281.85731075 -266.49609375 267.30078125 C-267.61951172 266.28951172 -267.61951172 266.28951172 -268.765625 265.2578125 C-284.86575546 250.22914431 -296.43982479 226.18978402 -297.6730957 204.13549805 C-298.2165853 174.10932194 -298.2165853 174.10932194 -293.49609375 160.30078125 C-293.28710449 159.67252441 -293.07811523 159.04426758 -292.86279297 158.39697266 C-287.54545996 142.73175114 -279.06033166 130.00372067 -267.49609375 118.30078125 C-266.85285156 117.58535156 -266.20960938 116.86992187 -265.546875 116.1328125 C-251.4265801 100.78732932 -228.95321823 90.96124062 -208.49609375 88.30078125 C-205.86019417 88.23421813 -203.25460779 88.20510714 -200.62109375 88.23828125 C-199.93273437 88.24279297 -199.244375 88.24730469 -198.53515625 88.25195312 C-196.8554304 88.26361789 -195.17575 88.28154854 -193.49609375 88.30078125 C-193.52703125 87.16125 -193.55796875 86.02171875 -193.58984375 84.84765625 C-193.54307308 58.2117614 -178.97511803 32.4152698 -161.49609375 13.30078125 C-160.779375 12.5015625 -160.06265625 11.70234375 -159.32421875 10.87890625 C-148.63978251 -0.44820284 -135.62364077 -8.41948517 -121.49609375 -14.69921875 C-120.43003906 -15.18132813 -119.36398438 -15.6634375 -118.265625 -16.16015625 C-80.20172443 -32.08041885 -32.37806739 -25.51961434 0 0 Z " fill="#C1DFF5" transform="translate(329.49609375,23.69921875)"/>
<path d="M0 0 C3.26701612 2.66358727 6.39330111 5.45632415 9.50390625 8.30078125 C10.303125 9.0175 11.10234375 9.73421875 11.92578125 10.47265625 C23.25289034 21.15709249 31.22417267 34.17323423 37.50390625 48.30078125 C38.22707031 49.89986328 38.22707031 49.89986328 38.96484375 51.53125 C41.63432247 57.91373093 43.35552743 64.37071353 44.81640625 71.11328125 C44.98817383 71.9019458 45.15994141 72.69061035 45.33691406 73.50317383 C46.35118393 78.52740939 46.66166128 83.17666406 46.50390625 88.30078125 C47.38949219 88.254375 48.27507812 88.20796875 49.1875 88.16015625 C72.95786214 87.46757546 97.43907086 96.66279554 114.94140625 112.86328125 C116.81462495 114.6574405 118.6587217 116.47746555 120.50390625 118.30078125 C121.21933594 118.94402344 121.93476563 119.58726562 122.671875 120.25 C138.41807094 134.73901463 149.49141961 159.19472699 150.6809082 180.46606445 C151.2243978 210.49224056 151.2243978 210.49224056 146.50390625 224.30078125 C146.29491699 224.92903809 146.08592773 225.55729492 145.87060547 226.20458984 C140.55327246 241.86981136 132.06814416 254.59784183 120.50390625 266.30078125 C119.86066406 267.01621094 119.21742188 267.73164063 118.5546875 268.46875 C102.17540144 286.26923224 77.90634898 294.35057769 54.50390625 296.30078125 C54.17390625 276.50078125 53.84390625 256.70078125 53.50390625 236.30078125 C52.51390625 237.29078125 51.52390625 238.28078125 50.50390625 239.30078125 C48.13521242 240.48512816 46.67197284 240.43985815 44.02929688 240.46191406 C43.10072876 240.47152161 42.17216064 240.48112915 41.2154541 240.49102783 C40.20720581 240.49527771 39.19895752 240.49952759 38.16015625 240.50390625 C37.12129272 240.50960632 36.0824292 240.5153064 35.01208496 240.5211792 C32.80624411 240.53064189 30.60038904 240.5371682 28.39453125 240.54101562 C25.04531462 240.55066199 21.6967272 240.58164894 18.34765625 240.61328125 C16.20182655 240.6198173 14.05599247 240.6250654 11.91015625 240.62890625 C10.91810181 240.64125305 9.92604736 240.65359985 8.90393066 240.6663208 C-2.71290711 240.62976826 -13.15555629 237.20404026 -21.76171875 229.19140625 C-31.09696725 219.16465786 -33.80860224 209.26665861 -33.796875 195.8203125 C-33.80116013 194.72990158 -33.80544525 193.63949066 -33.80986023 192.51603699 C-33.81558339 190.22074069 -33.8161187 187.92542626 -33.81176758 185.63012695 C-33.80859479 182.1144345 -33.83213693 178.59957373 -33.85742188 175.08398438 C-33.85969374 172.85026148 -33.86039889 170.61653632 -33.859375 168.3828125 C-33.86858475 167.33172806 -33.87779449 166.28064362 -33.88728333 165.19770813 C-33.87794014 163.73049568 -33.87794014 163.73049568 -33.8684082 162.23364258 C-33.86903763 161.37539383 -33.86966705 160.51714508 -33.87031555 159.63288879 C-33.41774401 156.81251463 -32.25216901 155.50595949 -30.49609375 153.30078125 C-48.18594406 153.2305802 -65.87575802 153.17773885 -83.5657177 153.14534473 C-91.7801874 153.12990122 -99.99457036 153.10886002 -108.20898438 153.07446289 C-115.37188818 153.04448326 -122.53472914 153.02518798 -129.69769394 153.01851577 C-133.48752574 153.01461795 -137.27717778 153.00551056 -141.06695175 152.98359108 C-144.64070724 152.96309027 -148.21421047 152.9569746 -151.78801918 152.96145821 C-153.71127684 152.96025114 -155.6345076 152.9441806 -157.55769348 152.92752075 C-169.76333714 152.97067258 -180.21533896 155.84159023 -189.50390625 164.08203125 C-196.4896368 171.46089815 -200.57296733 180.90997854 -200.65431213 191.07807922 C-200.66410095 192.01050949 -200.67388977 192.94293976 -200.68397522 193.90362549 C-200.68973068 194.91423035 -200.69548615 195.92483521 -200.70141602 196.96606445 C-200.71131561 198.03968735 -200.72121521 199.11331024 -200.73141479 200.21946716 C-200.76296877 203.76347661 -200.78776319 207.30749946 -200.8125 210.8515625 C-200.83307479 213.31064703 -200.8540714 215.76972807 -200.87547302 218.22880554 C-200.93063944 224.69781665 -200.98007271 231.16685938 -201.02832031 237.63592529 C-201.07857495 244.23843192 -201.13424034 250.84089268 -201.18945312 257.44335938 C-201.29696831 270.39579387 -201.39861181 283.34826755 -201.49609375 296.30078125 C-203.41523571 296.15176259 -205.33413625 295.99963254 -207.25292969 295.84619141 C-208.85584869 295.71961655 -208.85584869 295.71961655 -210.4911499 295.59048462 C-231.91055093 293.52546345 -251.28590316 281.85731075 -266.49609375 267.30078125 C-267.61951172 266.28951172 -267.61951172 266.28951172 -268.765625 265.2578125 C-284.86575546 250.22914431 -296.43982479 226.18978402 -297.6730957 204.13549805 C-298.2165853 174.10932194 -298.2165853 174.10932194 -293.49609375 160.30078125 C-293.28710449 159.67252441 -293.07811523 159.04426758 -292.86279297 158.39697266 C-287.54545996 142.73175114 -279.06033166 130.00372067 -267.49609375 118.30078125 C-266.85285156 117.58535156 -266.20960938 116.86992187 -265.546875 116.1328125 C-251.4265801 100.78732932 -228.95321823 90.96124062 -208.49609375 88.30078125 C-205.86019417 88.23421813 -203.25460779 88.20510714 -200.62109375 88.23828125 C-199.93273437 88.24279297 -199.244375 88.24730469 -198.53515625 88.25195312 C-196.8554304 88.26361789 -195.17575 88.28154854 -193.49609375 88.30078125 C-193.52703125 87.16125 -193.55796875 86.02171875 -193.58984375 84.84765625 C-193.54307308 58.2117614 -178.97511803 32.4152698 -161.49609375 13.30078125 C-160.779375 12.5015625 -160.06265625 11.70234375 -159.32421875 10.87890625 C-148.63978251 -0.44820284 -135.62364077 -8.41948517 -121.49609375 -14.69921875 C-120.43003906 -15.18132813 -119.36398438 -15.6634375 -118.265625 -16.16015625 C-80.20172443 -32.08041885 -32.37806739 -25.51961434 0 0 Z " fill="#197BF0" transform="translate(329.49609375,23.69921875)"/>
<path d="M0 0 C6.58691346 1.28900102 12.47588098 5.03009598 18.17578125 8.42578125 C18.17578125 9.08578125 18.17578125 9.74578125 18.17578125 10.42578125 C18.83578125 10.42578125 19.49578125 10.42578125 20.17578125 10.42578125 C20.17578125 11.08578125 20.17578125 11.74578125 20.17578125 12.42578125 C20.83578125 12.42578125 21.49578125 12.42578125 22.17578125 12.42578125 C23.51473757 14.08793393 24.84708267 15.75541732 26.17578125 17.42578125 C27.53703125 18.50859375 27.53703125 18.50859375 28.92578125 19.61328125 C29.66828125 20.21140625 30.41078125 20.80953125 31.17578125 21.42578125 C31.17578125 22.08578125 31.17578125 22.74578125 31.17578125 23.42578125 C31.83578125 23.42578125 32.49578125 23.42578125 33.17578125 23.42578125 C33.17578125 24.08578125 33.17578125 24.74578125 33.17578125 25.42578125 C33.83578125 25.42578125 34.49578125 25.42578125 35.17578125 25.42578125 C35.17578125 26.08578125 35.17578125 26.74578125 35.17578125 27.42578125 C35.83578125 27.42578125 36.49578125 27.42578125 37.17578125 27.42578125 C37.17578125 28.08578125 37.17578125 28.74578125 37.17578125 29.42578125 C37.83578125 29.42578125 38.49578125 29.42578125 39.17578125 29.42578125 C40.80078125 30.80078125 40.80078125 30.80078125 42.17578125 32.42578125 C42.17578125 33.08578125 42.17578125 33.74578125 42.17578125 34.42578125 C42.83578125 34.42578125 43.49578125 34.42578125 44.17578125 34.42578125 C44.17578125 35.08578125 44.17578125 35.74578125 44.17578125 36.42578125 C44.83578125 36.42578125 45.49578125 36.42578125 46.17578125 36.42578125 C46.17578125 37.08578125 46.17578125 37.74578125 46.17578125 38.42578125 C46.83578125 38.42578125 47.49578125 38.42578125 48.17578125 38.42578125 C48.17578125 39.08578125 48.17578125 39.74578125 48.17578125 40.42578125 C48.83578125 40.42578125 49.49578125 40.42578125 50.17578125 40.42578125 C50.17578125 41.08578125 50.17578125 41.74578125 50.17578125 42.42578125 C50.83578125 42.42578125 51.49578125 42.42578125 52.17578125 42.42578125 C52.17578125 43.08578125 52.17578125 43.74578125 52.17578125 44.42578125 C52.83578125 44.42578125 53.49578125 44.42578125 54.17578125 44.42578125 C54.17578125 45.08578125 54.17578125 45.74578125 54.17578125 46.42578125 C54.83578125 46.42578125 55.49578125 46.42578125 56.17578125 46.42578125 C56.17578125 47.08578125 56.17578125 47.74578125 56.17578125 48.42578125 C56.83578125 48.42578125 57.49578125 48.42578125 58.17578125 48.42578125 C58.17578125 49.08578125 58.17578125 49.74578125 58.17578125 50.42578125 C58.83578125 50.42578125 59.49578125 50.42578125 60.17578125 50.42578125 C60.17578125 51.08578125 60.17578125 51.74578125 60.17578125 52.42578125 C60.83578125 52.42578125 61.49578125 52.42578125 62.17578125 52.42578125 C62.17578125 53.08578125 62.17578125 53.74578125 62.17578125 54.42578125 C62.83578125 54.42578125 63.49578125 54.42578125 64.17578125 54.42578125 C64.17578125 55.08578125 64.17578125 55.74578125 64.17578125 56.42578125 C64.83578125 56.42578125 65.49578125 56.42578125 66.17578125 56.42578125 C66.17578125 57.08578125 66.17578125 57.74578125 66.17578125 58.42578125 C66.83578125 58.42578125 67.49578125 58.42578125 68.17578125 58.42578125 C69.83203125 60.62109375 69.83203125 60.62109375 71.67578125 63.55078125 C72.28421875 64.50210938 72.89265625 65.4534375 73.51953125 66.43359375 C76.70485375 72.1882094 77.80262503 76.94839553 77.17578125 83.42578125 C75.30563031 85.85697748 73.8943978 87.06647298 71.17578125 88.42578125 C69.68696078 88.53056427 68.19362312 88.57445798 66.70117188 88.58691406 C65.3083197 88.60132538 65.3083197 88.60132538 63.8873291 88.61602783 C62.87908081 88.62027771 61.87083252 88.62452759 60.83203125 88.62890625 C59.79316772 88.63460632 58.7543042 88.6403064 57.68395996 88.6461792 C55.47811911 88.65564189 53.27226404 88.6621682 51.06640625 88.66601562 C47.71718962 88.67566199 44.3686022 88.70664894 41.01953125 88.73828125 C38.87370155 88.7448173 36.72786747 88.7500654 34.58203125 88.75390625 C33.09394958 88.77242645 33.09394958 88.77242645 31.57580566 88.7913208 C19.95896789 88.75476826 9.51631871 85.32904026 0.91015625 77.31640625 C-8.4012838 67.3152299 -11.12627818 57.39257243 -11.1953125 43.98046875 C-11.20434097 42.8924295 -11.21336945 41.80439026 -11.22267151 40.68338013 C-11.23712935 38.39230078 -11.24604959 36.10118056 -11.24975586 33.81005859 C-11.26170449 30.30496405 -11.31097992 26.80160135 -11.36132812 23.296875 C-11.37078729 21.06641481 -11.37802474 18.83594386 -11.3828125 16.60546875 C-11.40234482 15.55954559 -11.42187714 14.51362244 -11.44200134 13.43600464 C-11.39712117 6.21360567 -11.39712117 6.21360567 -8.52368164 2.26220703 C-5.57940167 0.2592339 -3.56050693 -0.23468501 0 0 Z " fill="#01BCC3" transform="translate(306.82421875,175.57421875)"/>
<path d="M0 0 C0.66 0 1.32 0 2 0 C3.46412659 1.48536682 3.46412659 1.48536682 5.15844727 3.52954102 C8.74027164 7.73946959 12.532842 11.64616943 16.46484375 15.52734375 C17.14301651 16.20172989 17.82118927 16.87611603 18.51991272 17.57093811 C20.65666492 19.69560354 22.7966666 21.81694741 24.9375 23.9375 C27.78277721 26.75628311 30.62478661 29.57830241 33.46484375 32.40234375 C34.12097153 33.05017319 34.7770993 33.69800262 35.45310974 34.36546326 C36.98764931 35.89152706 38.49676887 37.44308684 40 39 C40 39.33 40 39.66 40 40 C35.05 40 30.1 40 25 40 C25 58.48 25 76.96 25 96 C9.16 96 -6.68 96 -23 96 C-23 77.52 -23 59.04 -23 40 C-28.28 40 -33.56 40 -39 40 C-32.98209031 32.71516196 -26.45639724 25.87389122 -19.25 19.75 C-15.16382892 16.25358557 -11.36885358 12.48234823 -7.5625 8.6875 C-6.62035645 7.75212402 -6.62035645 7.75212402 -5.65917969 6.79785156 C-5.07168945 6.20842773 -4.48419922 5.61900391 -3.87890625 5.01171875 C-3.3485376 4.48022217 -2.81816895 3.94872559 -2.27172852 3.40112305 C-0.89056415 2.00611595 -0.89056415 2.00611595 0 0 Z " fill="#1475E9" transform="translate(255,296)"/>
</svg>
